<svg width="41" height="41" viewBox="0 0 41 41" fill="none" xmlns="http://www.w3.org/2000/svg">
<path d="M33.5943 28.7189C33.1212 29.8216 32.5368 30.8731 31.8501 31.8571C30.9327 33.1674 30.1793 34.0728 29.6019 34.5767C28.705 35.4002 27.7415 35.8238 26.7114 35.8477C25.9734 35.8477 25.0817 35.6376 24.043 35.2105C23.0009 34.7852 22.0442 34.5767 21.1679 34.5767C20.2505 34.5767 19.2665 34.7852 18.2125 35.2105C17.1601 35.6376 16.3094 35.8614 15.6585 35.8819C14.6728 35.9246 13.6871 35.4907 12.7048 34.5767C12.0778 34.0301 11.2937 33.0905 10.3524 31.7614C9.3445 30.3452 8.51596 28.6967 7.86679 26.8226C7.1715 24.7948 6.823 22.8337 6.823 20.934C6.823 18.7593 7.29279 16.8818 8.23408 15.3102C8.94603 14.0758 9.96385 13.0457 11.1895 12.3189C12.3981 11.594 13.7778 11.2037 15.187 11.188C15.9728 11.188 17.003 11.4305 18.2791 11.9089C19.5552 12.3872 20.3752 12.6298 20.7322 12.6298C21.0022 12.6298 21.9093 12.3445 23.4536 11.779C24.9108 11.2546 26.1408 11.0376 27.1487 11.123C29.8821 11.3434 31.9338 12.4197 33.2987 14.3603C30.8558 15.8415 29.648 17.9137 29.672 20.5735C29.6925 22.6457 30.4458 24.3695 31.9218 25.7378C32.5744 26.3623 33.3357 26.862 34.1683 27.2121C33.9872 27.7366 33.7959 28.2371 33.5943 28.7189ZM27.3298 4.06591C27.3298 5.68883 26.7353 7.20583 25.5549 8.60837C24.1267 10.2757 22.4013 11.2409 20.5307 11.0889C20.5062 10.8848 20.4942 10.6794 20.4948 10.4739C20.4948 8.91416 21.1713 7.24683 22.3791 5.88187C22.9804 5.19171 23.7457 4.616 24.6734 4.15816C25.5993 3.70716 26.474 3.45775 27.2974 3.41504C27.3196 3.63371 27.3298 3.85066 27.3298 4.06591Z" fill="black"/>
</svg>
