<svg width="34" height="35" viewBox="0 0 34 35" fill="none" xmlns="http://www.w3.org/2000/svg">
<path d="M30.891 14.5293H29.7499V14.4695H16.9999V20.2306H25.0062C23.8382 23.5843 20.6995 25.9917 16.9999 25.9917C12.3058 25.9917 8.49992 22.1224 8.49992 17.35C8.49992 12.5777 12.3058 8.70838 16.9999 8.70838C19.1667 8.70838 21.138 9.53942 22.639 10.8969L26.646 6.82305C24.1158 4.42571 20.7314 2.94727 16.9999 2.94727C9.17638 2.94727 2.83325 9.39611 2.83325 17.35C2.83325 25.304 9.17638 31.7528 16.9999 31.7528C24.8235 31.7528 31.1666 25.304 31.1666 17.35C31.1666 16.3843 31.0688 15.4417 30.891 14.5293Z" fill="#FFC107"/>
<path d="M4.4668 10.6463L9.12125 14.1166C10.3807 10.9466 13.4308 8.70838 17 8.70838C19.1668 8.70838 21.1381 9.53942 22.6391 10.8969L26.6461 6.82305C24.116 4.42571 20.7315 2.94727 17 2.94727C11.5586 2.94727 6.83971 6.07051 4.4668 10.6463Z" fill="#FF3D00"/>
<path d="M17.0001 31.7529C20.6593 31.7529 23.9842 30.3292 26.4981 28.0139L22.1135 24.2418C20.6434 25.3785 18.847 25.9932 17.0001 25.9918C13.3153 25.9918 10.1866 23.6031 9.00793 20.2695L4.38818 23.8882C6.73277 28.5526 11.4942 31.7529 17.0001 31.7529Z" fill="#4CAF50"/>
<path d="M30.8911 14.5293H29.75V14.4695H17V20.2306H25.0063C24.4476 21.8267 23.4411 23.2215 22.1113 24.2425L22.1135 24.241L26.498 28.0131C26.1878 28.2997 31.1667 24.5514 31.1667 17.35C31.1667 16.3843 31.0689 15.4417 30.8911 14.5293Z" fill="#1976D2"/>
</svg>
