<svg width="20" height="20" viewBox="0 0 20 20" fill="none" xmlns="http://www.w3.org/2000/svg">
<g clip-path="url(#clip0_8_2225)">
<path d="M19.9825 7.72486C19.9402 7.59527 19.8282 7.50076 19.6932 7.48107L13.2171 6.53991L10.321 0.671684C10.2608 0.54925 10.1362 0.471924 10.0002 0.471924C9.86415 0.471924 9.73921 0.54925 9.67943 0.671684L6.78291 6.54026L0.306813 7.48143C0.17185 7.50112 0.0601561 7.59527 0.017555 7.72522C-0.0243302 7.85446 0.0103951 7.99694 0.108127 8.09181L4.79461 12.6598L3.68806 19.1101C3.66515 19.2444 3.72028 19.38 3.83018 19.4602C3.9408 19.5411 4.08722 19.5515 4.20715 19.4874L10.0002 16.4424L15.7925 19.4874C15.8448 19.515 15.9024 19.5286 15.9593 19.5286C16.0334 19.5286 16.1072 19.5057 16.1698 19.4602C16.2801 19.38 16.3352 19.2444 16.312 19.1101L15.2058 12.6602L19.8923 8.09181C19.9896 7.99622 20.0247 7.8541 19.9825 7.72486Z" fill="#F2C94C"/>
</g>
<defs>
<clipPath id="clip0_8_2225">
<rect width="20" height="20" fill="white"/>
</clipPath>
</defs>
</svg>
