<svg width="65" height="65" viewBox="0 0 65 65" fill="none" xmlns="http://www.w3.org/2000/svg">
<path d="M32.8512 64.8308C50.4877 64.8308 64.8325 50.486 64.8325 32.8524C64.8325 15.2159 50.4877 0.871094 32.8512 0.871094C15.2147 0.871094 0.869921 15.2159 0.869921 32.8524C0.872773 50.486 15.2176 64.8308 32.8512 64.8308ZM32.8512 1.45013C50.1654 1.45013 64.2535 15.5382 64.2535 32.8524C64.2535 50.1666 50.1682 64.2518 32.8541 64.2518C15.5399 64.2518 1.45182 50.1666 1.45182 32.8524C1.45182 15.5382 15.537 1.45013 32.8512 1.45013Z" fill="#303030"/>
<path d="M27.01 20.68L30.7 41.17L33.07 41.62L32.98 43H23.77L23.83 41.62L26.29 41.23L25.57 36.7H17.98L15.97 41.2L18.7 41.62L18.61 43H10.81L10.93 41.62L12.97 41.23L22.84 20.68H27.01ZM18.82 34.75H25.3L23.98 25.9L23.83 23.44L18.82 34.75ZM50.8661 20.71L50.5061 25.84H48.0461L47.4761 22.63L41.6261 22.3L40.5761 30.28L47.3861 29.83L46.9961 32.71L40.3061 32.35L39.2261 41.05L46.7561 40.63L48.3461 36.73L50.8361 37L49.7261 43H32.5061L32.6861 41.62L34.9661 41.23L37.3961 22.54L35.2961 22.18L35.4761 20.71H50.8661Z" fill="#303030"/>
</svg>
